<svg width="72" height="72" viewBox="0 0 72 72" fill="none" xmlns="http://www.w3.org/2000/svg">
<path d="M36 66C43.9565 66 51.5871 62.8393 57.2132 57.2132C62.8393 51.5871 66 43.9565 66 36C66 28.0435 62.8393 20.4129 57.2132 14.7868C51.5871 9.16071 43.9565 6 36 6C28.0435 6 20.4129 9.16071 14.7868 14.7868C9.16071 20.4129 6 28.0435 6 36C6 43.9565 9.16071 51.5871 14.7868 57.2132C20.4129 62.8393 28.0435 66 36 66ZM31.5 49.5C31.5 48.3065 31.9741 47.1619 32.818 46.318C33.6619 45.4741 34.8065 45 36 45C37.1935 45 38.3381 45.4741 39.182 46.318C40.0259 47.1619 40.5 48.3065 40.5 49.5C40.5 50.6935 40.0259 51.8381 39.182 52.682C38.3381 53.5259 37.1935 54 36 54C34.8065 54 33.6619 53.5259 32.818 52.682C31.9741 51.8381 31.5 50.6935 31.5 49.5ZM33.048 20.46C33.1732 19.7683 33.5374 19.1426 34.0769 18.692C34.6164 18.2413 35.2971 17.9945 36 17.9945C36.7029 17.9945 37.3836 18.2413 37.9231 18.692C38.4626 19.1426 38.8268 19.7683 38.952 20.46L39 21V36L38.952 36.54C38.8268 37.2317 38.4626 37.8574 37.9231 38.3081C37.3836 38.7587 36.7029 39.0055 36 39.0055C35.2971 39.0055 34.6164 38.7587 34.0769 38.3081C33.5374 37.8574 33.1732 37.2317 33.048 36.54L33 36V21L33.048 20.46Z" fill="#E64243"/>
</svg>
