<svg width="52" height="52" viewBox="0 0 52 52" fill="none" xmlns="http://www.w3.org/2000/svg">
<rect x="2" y="2" width="48" height="48" rx="24" stroke="#0E76FD" stroke-width="2.5" stroke-linecap="round" stroke-dasharray="6 6"/>
<rect x="5.42859" y="5.42859" width="41.1429" height="41.1429" rx="20.5714" fill="#E4F2FF"/>
<path d="M25.9999 28.5714C28.8402 28.5714 31.1428 26.2688 31.1428 23.4285C31.1428 20.5882 28.8402 18.2856 25.9999 18.2856C23.1596 18.2856 20.8571 20.5882 20.8571 23.4285C20.8571 26.2688 23.1596 28.5714 25.9999 28.5714Z" stroke="#0E76FD" stroke-width="2" stroke-miterlimit="10"/>
<path d="M18.2053 33.0713C18.9952 31.7029 20.1313 30.5666 21.4996 29.7765C22.8679 28.9865 24.42 28.5706 26 28.5706C27.5799 28.5706 29.1321 28.9865 30.5003 29.7765C31.8686 30.5666 33.0047 31.7029 33.7946 33.0713" stroke="#0E76FD" stroke-width="2" stroke-linecap="round" stroke-linejoin="round"/>
</svg>
