<svg width="40" height="40" viewBox="0 0 40 40" fill="none" xmlns="http://www.w3.org/2000/svg">
<path d="M21.2256 4.00098C23.4143 3.90114 21.9553 11.4735 20.444 15.409C22.3201 12.8019 27.2785 6.17264 29.251 7.53795C32.6382 9.88261 25.1514 15.7743 21.903 18.9957C26.2458 17.1359 35.0877 13.4163 35.9214 16.3555C37.2397 21.0032 21.5384 21.3371 21.5384 21.3371C21.5384 21.3371 32.899 25.3224 29.5115 29.6067C26.4435 33.4868 22.5459 25.9036 20.8089 22.5825C21.6426 27.8133 20.6004 36.4315 17.5779 35.9832C14.6397 35.5473 15.8758 28.5078 16.9452 25.2905C15.878 28.0049 12.3387 32.3732 10.1256 31.151C8.06762 30.0145 13.235 24.2265 15.858 21.5364C12.2623 23.5124 4.37723 28.1911 4.02852 25.4221C3.35097 20.0419 14.9722 19.195 14.9722 19.195C14.9722 19.195 6.36073 16.1919 8.82294 13.9643C11.7412 11.324 15.4586 15.7245 17.5779 17.7503C16.1187 14.5621 17.3173 4.34969 21.2256 4.00098Z" fill="#0D0D0D"/>
</svg>
