<svg width="66" height="66" viewBox="0 0 66 66" fill="none" xmlns="http://www.w3.org/2000/svg">
<path d="M33 0.5C26.5721 0.5 20.2886 2.40609 14.944 5.97724C9.59938 9.54838 5.43378 14.6242 2.97393 20.5628C0.514082 26.5014 -0.129527 33.0361 1.12449 39.3404C2.37851 45.6448 5.47384 51.4358 10.019 55.981C14.5643 60.5262 20.3552 63.6215 26.6596 64.8755C32.964 66.1295 39.4986 65.4859 45.4372 63.0261C51.3758 60.5662 56.4516 56.4006 60.0228 51.056C63.5939 45.7114 65.5 39.4279 65.5 33C65.4909 24.3833 62.0639 16.122 55.9709 10.0291C49.878 3.93612 41.6168 0.509099 33 0.5ZM33 60.5C27.561 60.5 22.2442 58.8872 17.7218 55.8654C13.1995 52.8437 9.67474 48.5488 7.59333 43.5238C5.51192 38.4988 4.96733 32.9695 6.02842 27.635C7.08951 22.3005 9.70863 17.4005 13.5546 13.5546C17.4005 9.70862 22.3006 7.0895 27.635 6.0284C32.9695 4.96731 38.4988 5.5119 43.5238 7.59331C48.5488 9.67472 52.8437 13.1995 55.8654 17.7218C58.8872 22.2442 60.5 27.561 60.5 33C60.4917 40.2909 57.5918 47.2808 52.4363 52.4363C47.2809 57.5918 40.2909 60.4917 33 60.5ZM52.2688 31.2312C52.501 31.4635 52.6853 31.7393 52.811 32.0428C52.9367 32.3462 53.0014 32.6715 53.0014 33C53.0014 33.3285 52.9367 33.6538 52.811 33.9572C52.6853 34.2607 52.501 34.5365 52.2688 34.7688C52.0365 35.001 51.7607 35.1853 51.4573 35.311C51.1538 35.4367 50.8285 35.5014 50.5 35.5014C50.1715 35.5014 49.8463 35.4367 49.5428 35.311C49.2393 35.1853 48.9635 35.001 48.7313 34.7688L45.5 31.5344L42.2688 34.7688C41.7997 35.2379 41.1634 35.5014 40.5 35.5014C39.8366 35.5014 39.2004 35.2379 38.7313 34.7688C38.2622 34.2996 37.9986 33.6634 37.9986 33C37.9986 32.3366 38.2622 31.7003 38.7313 31.2312L41.9656 28L38.7313 24.7688C38.2622 24.2997 37.9986 23.6634 37.9986 23C37.9986 22.3366 38.2622 21.7003 38.7313 21.2312C39.2004 20.7621 39.8366 20.4986 40.5 20.4986C41.1634 20.4986 41.7997 20.7621 42.2688 21.2312L45.5 24.4656L48.7313 21.2312C48.9635 20.999 49.2393 20.8147 49.5428 20.689C49.8463 20.5633 50.1715 20.4986 50.5 20.4986C50.8285 20.4986 51.1538 20.5633 51.4573 20.689C51.7607 20.8147 52.0365 20.999 52.2688 21.2312C52.501 21.4635 52.6853 21.7393 52.811 22.0428C52.9367 22.3462 53.0014 22.6715 53.0014 23C53.0014 23.3285 52.9367 23.6538 52.811 23.9572C52.6853 24.2607 52.501 24.5365 52.2688 24.7688L49.0344 28L52.2688 31.2312ZM27.2688 24.7688L24.0344 28L27.2688 31.2312C27.7379 31.7003 28.0014 32.3366 28.0014 33C28.0014 33.6634 27.7379 34.2996 27.2688 34.7688C26.7997 35.2379 26.1634 35.5014 25.5 35.5014C24.8366 35.5014 24.2004 35.2379 23.7313 34.7688L20.5 31.5344L17.2688 34.7688C16.7997 35.2379 16.1634 35.5014 15.5 35.5014C14.8366 35.5014 14.2004 35.2379 13.7313 34.7688C13.2622 34.2996 12.9986 33.6634 12.9986 33C12.9986 32.3366 13.2622 31.7003 13.7313 31.2312L16.9656 28L13.7313 24.7688C13.2622 24.2997 12.9986 23.6634 12.9986 23C12.9986 22.3366 13.2622 21.7003 13.7313 21.2312C14.2004 20.7621 14.8366 20.4986 15.5 20.4986C16.1634 20.4986 16.7997 20.7621 17.2688 21.2312L20.5 24.4656L23.7313 21.2312C24.2004 20.7621 24.8366 20.4986 25.5 20.4986C26.1634 20.4986 26.7997 20.7621 27.2688 21.2312C27.7379 21.7003 28.0014 22.3366 28.0014 23C28.0014 23.6634 27.7379 24.2997 27.2688 24.7688ZM36.75 49.25C36.75 49.9917 36.5301 50.7167 36.118 51.3334C35.706 51.9501 35.1203 52.4307 34.4351 52.7145C33.7499 52.9984 32.9959 53.0726 32.2684 52.9279C31.541 52.7832 30.8728 52.4261 30.3484 51.9016C29.8239 51.3772 29.4668 50.709 29.3221 49.9816C29.1774 49.2542 29.2516 48.5002 29.5355 47.8149C29.8193 47.1297 30.2999 46.544 30.9166 46.132C31.5333 45.7199 32.2583 45.5 33 45.5C33.9946 45.5 34.9484 45.8951 35.6517 46.5984C36.3549 47.3016 36.75 48.2554 36.75 49.25Z" fill="#1B1D1F"/>
</svg>
