<svg width="40" height="40" viewBox="0 0 40 40" fill="none" xmlns="http://www.w3.org/2000/svg">
<path d="M20 3.75C16.7861 3.75 13.6443 4.70305 10.972 6.48862C8.29969 8.27419 6.21689 10.8121 4.98696 13.7814C3.75704 16.7507 3.43524 20.018 4.06225 23.1702C4.68926 26.3224 6.23692 29.2179 8.50952 31.4905C10.7821 33.7631 13.6776 35.3107 16.8298 35.9378C19.982 36.5648 23.2493 36.243 26.2186 35.013C29.1879 33.7831 31.7258 31.7003 33.5114 29.028C35.297 26.3557 36.25 23.2139 36.25 20C36.2455 15.6916 34.5319 11.561 31.4855 8.51454C28.439 5.46806 24.3084 3.75455 20 3.75ZM20 33.75C17.2805 33.75 14.6221 32.9436 12.3609 31.4327C10.0997 29.9218 8.33737 27.7744 7.29666 25.2619C6.25596 22.7494 5.98366 19.9847 6.51421 17.3175C7.04476 14.6503 8.35432 12.2003 10.2773 10.2773C12.2003 8.35431 14.6503 7.04475 17.3175 6.5142C19.9848 5.98366 22.7494 6.25595 25.2619 7.29666C27.7744 8.33736 29.9218 10.0997 31.4327 12.3609C32.9436 14.6221 33.75 17.2805 33.75 20C33.7459 23.6455 32.2959 27.1404 29.7182 29.7182C27.1404 32.2959 23.6455 33.7459 20 33.75ZM21.875 12.5V27.5C21.875 27.8315 21.7433 28.1495 21.5089 28.3839C21.2745 28.6183 20.9565 28.75 20.625 28.75C20.2935 28.75 19.9755 28.6183 19.7411 28.3839C19.5067 28.1495 19.375 27.8315 19.375 27.5V14.8438L17.5688 16.0484C17.4321 16.1395 17.2788 16.2028 17.1177 16.2347C16.9566 16.2666 16.7908 16.2664 16.6297 16.2342C16.4687 16.202 16.3155 16.1384 16.1791 16.047C16.0426 15.9556 15.9255 15.8382 15.8344 15.7016C15.7433 15.5649 15.68 15.4116 15.6481 15.2505C15.6162 15.0894 15.6164 14.9236 15.6486 14.7625C15.6808 14.6015 15.7444 14.4484 15.8358 14.3119C15.9272 14.1754 16.0446 14.0583 16.1813 13.9672L19.9313 11.4672C20.119 11.3419 20.3372 11.2698 20.5626 11.2585C20.788 11.2473 21.0122 11.2972 21.2116 11.4031C21.4109 11.509 21.5778 11.6669 21.6946 11.86C21.8114 12.0532 21.8737 12.2743 21.875 12.5Z" fill="#0E76FD"/>
</svg>
