<svg xmlns="http://www.w3.org/2000/svg" width="48" height="48"><g><path d="M 48 0 L 48 48 L 0 48 L 0 0 Z M 25.186 46.516 L 25.164 46.52 L 25.022 46.59 L 24.982 46.598 L 24.954 46.59 L 24.812 46.52 C 24.792 46.512 24.774 46.518 24.764 46.53 L 24.756 46.55 L 24.722 47.406 L 24.732 47.446 L 24.752 47.472 L 24.96 47.62 L 24.99 47.628 L 25.014 47.62 L 25.222 47.472 L 25.246 47.44 L 25.254 47.406 L 25.22 46.552 C 25.216 46.532 25.202 46.518 25.186 46.516 Z M 25.716 46.29 L 25.69 46.294 L 25.32 46.48 L 25.3 46.5 L 25.294 46.522 L 25.33 47.382 L 25.34 47.406 L 25.356 47.42 L 25.758 47.606 C 25.782 47.614 25.804 47.606 25.816 47.59 L 25.824 47.562 L 25.756 46.334 C 25.75 46.31 25.736 46.294 25.716 46.29 Z M 24.286 46.294 C 24.267 46.286 24.245 46.29 24.232 46.306 L 24.22 46.334 L 24.152 47.562 C 24.152 47.586 24.166 47.602 24.186 47.61 L 24.216 47.606 L 24.618 47.42 L 24.638 47.404 L 24.646 47.382 L 24.68 46.522 L 24.674 46.498 L 24.654 46.478 Z" fill="transparent"></path><g><defs><linearGradient id="idOhy7qy1Vwg1208789913" gradientTransform="rotate(75, 0.5, 0.5)"><stop offset="0" stop-color="#0E76FD" stop-opacity="1"></stop><stop offset="1" stop-color="rgba(14, 118, 253, 0.55)" stop-opacity="0.55"></stop></linearGradient></defs><path d="M 21.772 4.122 C 22.87 4 23.858 4.792 23.98 5.89 C 24.102 6.988 23.31 7.976 22.212 8.098 C 13.79 9.063 7.582 16.428 8.056 24.892 C 8.531 33.355 15.523 39.98 24 39.998 L 24 43.998 C 12.954 43.998 4 35.046 4 23.998 C 4 13.786 11.696 5.242 21.772 4.124 Z" fill="url(#idOhy7qy1Vwg1208789913)"></path></g><g><defs><linearGradient id="idC2NJk182rg-1693872735" gradientTransform="rotate(90, 0.5, 0.5)"><stop offset="0" stop-color="rgba(14, 118, 253, 0)" stop-opacity="0"></stop><stop offset="1" stop-color="rgba(14, 118, 253, 0.55)" stop-opacity="0.55"></stop></linearGradient></defs><path d="M 32.644 8.08 C 33.276 7.174 34.522 6.952 35.428 7.584 C 40.802 11.321 44.005 17.454 44 24 C 44 35.046 35.046 44 24 44 L 24 40 C 30.992 40.001 37.176 35.461 39.269 28.789 C 41.362 22.118 38.88 14.859 33.14 10.866 C 32.705 10.562 32.408 10.098 32.315 9.576 C 32.222 9.053 32.34 8.515 32.644 8.08 Z" fill="url(#idC2NJk182rg-1693872735)"></path></g></g></svg>