<svg width="40" height="40" viewBox="0 0 40 40" fill="none" xmlns="http://www.w3.org/2000/svg">
<path d="M20 3.75C16.7861 3.75 13.6443 4.70305 10.972 6.48862C8.29969 8.27419 6.21689 10.8121 4.98696 13.7814C3.75704 16.7507 3.43524 20.018 4.06225 23.1702C4.68926 26.3224 6.23692 29.2179 8.50952 31.4905C10.7821 33.7631 13.6776 35.3107 16.8298 35.9378C19.982 36.5648 23.2493 36.243 26.2186 35.013C29.1879 33.7831 31.7258 31.7003 33.5114 29.028C35.297 26.3557 36.25 23.2139 36.25 20C36.2455 15.6916 34.5319 11.561 31.4855 8.51454C28.439 5.46806 24.3084 3.75455 20 3.75ZM20 33.75C17.2805 33.75 14.6221 32.9436 12.3609 31.4327C10.0997 29.9218 8.33737 27.7744 7.29666 25.2619C6.25596 22.7494 5.98366 19.9847 6.51421 17.3175C7.04476 14.6503 8.35432 12.2003 10.2773 10.2773C12.2003 8.35431 14.6503 7.04475 17.3175 6.5142C19.9848 5.98366 22.7494 6.25595 25.2619 7.29666C27.7744 8.33736 29.9218 10.0997 31.4327 12.3609C32.9436 14.6221 33.75 17.2805 33.75 20C33.7459 23.6455 32.2959 27.1404 29.7182 29.7182C27.1404 32.2959 23.6455 33.7459 20 33.75ZM25 23.75C24.9997 24.8672 24.6668 25.959 24.0436 26.8863C23.4204 27.8135 22.5352 28.5342 21.5008 28.9564C20.4665 29.3786 19.3298 29.4833 18.2358 29.257C17.1417 29.0307 16.1398 28.4838 15.3578 27.6859C15.2357 27.5704 15.1381 27.4314 15.0709 27.2772C15.0038 27.1231 14.9684 26.957 14.9669 26.7889C14.9654 26.6207 14.9979 26.454 15.0623 26.2987C15.1268 26.1434 15.2219 26.0027 15.342 25.8851C15.4621 25.7674 15.6047 25.6751 15.7613 25.6139C15.9179 25.5526 16.0852 25.5235 16.2533 25.5284C16.4213 25.5333 16.5867 25.5721 16.7394 25.6424C16.8922 25.7127 17.0292 25.813 17.1422 25.9375C17.5028 26.3054 17.9488 26.5785 18.4405 26.7323C18.9322 26.8862 19.4542 26.9162 19.9603 26.8195C20.4663 26.7228 20.9406 26.5025 21.3409 26.1783C21.7412 25.854 22.0552 25.4358 22.2548 24.9608C22.4544 24.4859 22.5335 23.969 22.485 23.4561C22.4366 22.9432 22.2621 22.4502 21.977 22.021C21.692 21.5919 21.3053 21.2399 20.8513 20.9963C20.3973 20.7527 19.8902 20.6252 19.375 20.625C19.1463 20.6249 18.9221 20.5621 18.7266 20.4435C18.5311 20.3248 18.372 20.1548 18.2665 19.9519C18.1609 19.7491 18.113 19.5211 18.1281 19.293C18.1431 19.0648 18.2204 18.8451 18.3516 18.6578L21.3484 14.375H16.25C15.9185 14.375 15.6005 14.2433 15.3661 14.0089C15.1317 13.7745 15 13.4565 15 13.125C15 12.7935 15.1317 12.4755 15.3661 12.2411C15.6005 12.0067 15.9185 11.875 16.25 11.875H23.75C23.9787 11.8751 24.2029 11.9379 24.3984 12.0565C24.5939 12.1752 24.753 12.3452 24.8586 12.5481C24.9641 12.7509 25.012 12.9789 24.997 13.207C24.982 13.4352 24.9046 13.6549 24.7734 13.8422L21.4922 18.5297C22.5295 18.9527 23.4172 19.6752 24.042 20.605C24.6668 21.5348 25.0003 22.6298 25 23.75Z" fill="#0E76FD"/>
</svg>
