<svg width="40" height="40" viewBox="0 0 40 40" fill="none" xmlns="http://www.w3.org/2000/svg">
<path d="M20 3.75C16.7861 3.75 13.6443 4.70305 10.972 6.48862C8.29969 8.27419 6.21689 10.8121 4.98696 13.7814C3.75704 16.7507 3.43524 20.018 4.06225 23.1702C4.68926 26.3224 6.23692 29.2179 8.50952 31.4905C10.7821 33.7631 13.6776 35.3107 16.8298 35.9378C19.982 36.5648 23.2493 36.243 26.2186 35.013C29.1879 33.7831 31.7258 31.7003 33.5114 29.028C35.297 26.3557 36.25 23.2139 36.25 20C36.2455 15.6916 34.5319 11.561 31.4855 8.51454C28.439 5.46806 24.3084 3.75455 20 3.75ZM20 33.75C17.2805 33.75 14.6221 32.9436 12.3609 31.4327C10.0997 29.9218 8.33737 27.7744 7.29666 25.2619C6.25596 22.7494 5.98366 19.9847 6.51421 17.3175C7.04476 14.6503 8.35432 12.2003 10.2773 10.2773C12.2003 8.35431 14.6503 7.04475 17.3175 6.5142C19.9848 5.98366 22.7494 6.25595 25.2619 7.29666C27.7744 8.33736 29.9218 10.0997 31.4327 12.3609C32.9436 14.6221 33.75 17.2805 33.75 20C33.7459 23.6455 32.2959 27.1404 29.7182 29.7182C27.1404 32.2959 23.6455 33.7459 20 33.75ZM23.9938 19.2594L18.75 26.25H23.75C24.0815 26.25 24.3995 26.3817 24.6339 26.6161C24.8683 26.8505 25 27.1685 25 27.5C25 27.8315 24.8683 28.1495 24.6339 28.3839C24.3995 28.6183 24.0815 28.75 23.75 28.75H16.25C16.0179 28.75 15.7903 28.6854 15.5928 28.5633C15.3954 28.4413 15.2358 28.2666 15.132 28.059C15.0282 27.8514 14.9842 27.6189 15.0051 27.3877C15.0259 27.1565 15.1107 26.9357 15.25 26.75L21.9953 17.7563C22.2113 17.4684 22.3626 17.1374 22.4389 16.7857C22.5152 16.434 22.5146 16.07 22.4373 15.7185C22.3599 15.3671 22.2077 15.0365 21.9908 14.7493C21.774 14.4621 21.4977 14.2251 21.1808 14.0545C20.864 13.8839 20.514 13.7838 20.1549 13.7608C19.7958 13.7379 19.436 13.7928 19.1 13.9217C18.764 14.0507 18.4599 14.2506 18.2083 14.5079C17.9567 14.7652 17.7636 15.0737 17.6422 15.4125C17.5316 15.7252 17.3012 15.9811 17.0019 16.1239C16.7026 16.2668 16.3588 16.2849 16.0461 16.1742C15.7334 16.0636 15.4775 15.8333 15.3347 15.5339C15.1918 15.2346 15.1737 14.8908 15.2844 14.5781C15.5255 13.8993 15.9105 13.2806 16.413 12.7643C16.9154 12.2481 17.5235 11.8465 18.1956 11.5871C18.8676 11.3277 19.5878 11.2166 20.3068 11.2614C21.0258 11.3062 21.7266 11.5058 22.3613 11.8466C22.996 12.1874 23.5495 12.6614 23.9841 13.2359C24.4186 13.8105 24.7238 14.4723 24.8788 15.1758C25.0338 15.8793 25.035 16.608 24.8823 17.312C24.7295 18.016 24.4264 18.6787 23.9938 19.2547V19.2594Z" fill="#0E76FD"/>
</svg>
