<svg width="16" height="16" viewBox="0 0 16 16" fill="none" xmlns="http://www.w3.org/2000/svg">
<path d="M14.7938 11.75L9.30007 2.24996C9.16855 2.02148 8.97913 1.8317 8.7509 1.69973C8.52268 1.56777 8.2637 1.49829 8.00007 1.49829C7.73644 1.49829 7.47746 1.56777 7.24924 1.69973C7.02101 1.8317 6.83159 2.02148 6.70007 2.24996L1.20632 11.75C1.07286 11.9773 1.00194 12.2359 1.00075 12.4995C0.999557 12.7631 1.06814 13.0223 1.19954 13.2508C1.33094 13.4793 1.52047 13.669 1.74889 13.8006C1.9773 13.9322 2.23647 14.0009 2.50007 14H13.5001C13.7637 14.0009 14.0228 13.9322 14.2513 13.8006C14.4797 13.669 14.6692 13.4793 14.8006 13.2508C14.932 13.0223 15.0006 12.7631 14.9994 12.4995C14.9982 12.2359 14.9273 11.9773 14.7938 11.75ZM7.50007 6.49996C7.50007 6.36735 7.55275 6.24017 7.64652 6.14641C7.74029 6.05264 7.86746 5.99996 8.00007 5.99996C8.13268 5.99996 8.25986 6.05264 8.35362 6.14641C8.44739 6.24017 8.50007 6.36735 8.50007 6.49996V8.99996C8.50007 9.13257 8.44739 9.25975 8.35362 9.35351C8.25986 9.44728 8.13268 9.49996 8.00007 9.49996C7.86746 9.49996 7.74029 9.44728 7.64652 9.35351C7.55275 9.25975 7.50007 9.13257 7.50007 8.99996V6.49996ZM8.00007 12C7.85173 12 7.70673 11.956 7.58339 11.8736C7.46006 11.7912 7.36393 11.674 7.30716 11.537C7.2504 11.3999 7.23554 11.2491 7.26448 11.1036C7.29342 10.9582 7.36485 10.8245 7.46974 10.7196C7.57463 10.6147 7.70827 10.5433 7.85375 10.5144C7.99924 10.4854 8.15004 10.5003 8.28708 10.5571C8.42413 10.6138 8.54126 10.7099 8.62367 10.8333C8.70608 10.9566 8.75007 11.1016 8.75007 11.25C8.75007 11.4489 8.67105 11.6396 8.5304 11.7803C8.38975 11.9209 8.19898 12 8.00007 12Z" fill="#FF4949"/>
</svg>
