<?xml version="1.0" standalone="no"?>
<!DOCTYPE svg PUBLIC "-//W3C//DTD SVG 20010904//EN"
 "http://www.w3.org/TR/2001/REC-SVG-20010904/DTD/svg10.dtd">
<svg version="1.0" xmlns="http://www.w3.org/2000/svg"
 width="400.000000pt" height="400.000000pt" viewBox="0 0 400.000000 400.000000"
 preserveAspectRatio="xMidYMid meet">
<metadata>
Created by potrace 1.14, written by Peter Selinger 2001-2017
</metadata>
<g transform="translate(0.000000,400.000000) scale(0.100000,-0.100000)"
fill="#000000" stroke="none">
<path d="M480 3984 c-184 -49 -341 -180 -421 -349 -63 -133 -60 -38 -57 -1661
l3 -1479 26 -67 c75 -192 205 -322 397 -397 l67 -26 1505 0 1505 0 67 26 c192
75 322 205 397 397 l26 67 0 1505 0 1505 -26 67 c-75 192 -205 322 -397 397
l-67 26 -1485 2 c-1282 2 -1493 0 -1540 -13z m1649 -801 c59 -48 53 -271 -16
-557 -14 -61 -38 -148 -54 -193 -15 -46 -25 -83 -21 -83 4 1 34 38 67 83 95
130 248 308 327 382 140 129 220 155 284 91 30 -30 34 -40 34 -87 0 -118 -72
-216 -377 -516 l-237 -232 184 74 c554 226 838 263 873 114 23 -97 -92 -194
-299 -253 -159 -45 -505 -95 -676 -97 -35 0 -71 -4 -82 -8 -15 -6 -9 -11 30
-25 27 -11 99 -42 159 -71 247 -118 405 -256 430 -372 22 -107 -102 -247 -203
-228 -117 21 -253 173 -411 460 -85 154 -82 152 -73 60 4 -44 6 -150 6 -235
-3 -431 -122 -729 -270 -680 -48 16 -90 69 -103 130 -27 124 -5 388 48 575 11
38 18 71 16 73 -2 2 -16 -20 -31 -50 -69 -137 -221 -310 -314 -358 -95 -49
-190 -27 -190 43 0 19 5 49 11 68 33 99 177 295 355 487 53 57 95 104 93 106
-2 2 -51 -23 -109 -56 -140 -79 -399 -209 -481 -241 -108 -43 -197 -61 -241
-48 -32 10 -39 18 -48 51 -37 137 100 288 335 368 124 42 357 92 432 92 54 0
46 16 -20 40 -34 13 -116 50 -181 83 -138 70 -232 150 -242 205 -6 29 -2 37
35 72 123 117 276 68 526 -169 64 -62 119 -110 121 -109 2 2 -4 26 -13 53 -24
78 -29 315 -9 454 45 301 165 509 302 520 7 1 22 -7 33 -16z"/>
</g>
</svg>
